<svg fill="#FFFFFF" xmlns="http://www.w3.org/2000/svg"  viewBox="0 0 72 72" width="64px" height="64px"><path d="M 48.105469 10.464844 C 44.773383 10.464844 41.752654 11.815362 39.558594 13.998047 L 23.984375 13.998047 C 21.479375 13.998047 18.809109 15.373531 17.037109 17.144531 C 15.266109 18.915531 14.048828 21.529156 14.048828 24.035156 L 14.019531 47.783203 C 14.019531 50.105203 15.192609 52.841547 16.724609 54.560547 L 39.636719 31.587891 C 39.848642 31.872456 40.047551 32.159146 40.263672 32.445312 C 40.894301 33.280394 41.527352 34.028023 42.140625 34.794922 L 40.130859 36.820312 L 56.390625 53.050781 C 57.155625 51.674781 57.955078 49.799641 57.955078 48.181641 L 57.992188 29.580078 C 59.281257 27.572935 60.232422 25.407881 60.232422 22.591797 C 60.232422 15.904797 54.792469 10.464844 48.105469 10.464844 z M 48.105469 14.451172 C 52.594469 14.451172 56.245094 18.101844 56.246094 22.589844 C 56.246094 25.434844 54.786578 27.367016 52.767578 30.041016 C 51.259578 32.037016 49.479422 34.396469 48.107422 37.605469 C 46.735422 34.396469 44.952312 32.037016 43.445312 30.041016 C 41.425313 27.367016 39.966797 25.434844 39.966797 22.589844 C 39.966797 18.101844 43.617469 14.451172 48.105469 14.451172 z M 48.105469 20.185547 C 46.724469 20.185547 45.603516 21.3055 45.603516 22.6875 C 45.603516 24.0695 46.724469 25.191406 48.105469 25.191406 C 49.487469 25.191406 50.609375 24.0695 50.609375 22.6875 C 50.609375 21.3055 49.486469 20.185547 48.105469 20.185547 z M 26.988281 22.013672 C 28.291281 22.013672 29.478141 22.510172 30.369141 23.326172 L 29.171875 24.5 C 28.585875 23.992 27.823281 23.683594 26.988281 23.683594 C 25.143281 23.683594 23.646484 25.180391 23.646484 27.025391 C 23.646484 28.870391 25.143281 30.365234 26.988281 30.365234 C 28.643281 30.365234 30.062125 29.162031 30.328125 27.582031 L 26.988281 27.582031 L 26.988281 25.910156 L 31.869141 25.910156 L 31.896484 26.021484 C 31.962484 26.345484 32 26.679437 32 27.023438 C 32 29.791438 29.756281 32.035156 26.988281 32.035156 C 24.220281 32.035156 21.977563 29.793391 21.976562 27.025391 C 21.976562 24.256391 24.220281 22.013672 26.988281 22.013672 z M 37.283203 39.667969 L 20.056641 56.980469 C 20.967641 57.436469 22.532672 57.977859 24.013672 58.005859 L 48.017578 57.976562 C 49.908578 57.976563 51.976609 57.208375 53.599609 55.984375 L 37.283203 39.667969 z"/></svg>